<?xml version="1.0" encoding="UTF-8"?>
<!DOCTYPE svg PUBLIC "-//W3C//DTD SVG 1.1//EN" "http://www.w3.org/Graphics/SVG/1.1/DTD/svg11.dtd">
<svg xmlns="http://www.w3.org/2000/svg" version="1.1" width="1024px" height="1024px" style="shape-rendering:geometricPrecision; text-rendering:geometricPrecision; image-rendering:optimizeQuality; fill-rule:evenodd; clip-rule:evenodd" xmlns:xlink="http://www.w3.org/1999/xlink">
<g><path style="opacity:1" fill="#fcfcfc" d="M -0.5,-0.5 C 340.833,-0.5 682.167,-0.5 1023.5,-0.5C 1023.5,340.833 1023.5,682.167 1023.5,1023.5C 682.167,1023.5 340.833,1023.5 -0.5,1023.5C -0.5,682.167 -0.5,340.833 -0.5,-0.5 Z"/></g>
<g><path style="opacity:1" fill="#1a3437" d="M 489.5,156.5 C 489.631,157.376 489.298,158.043 488.5,158.5C 470.073,149.445 451.406,141.279 432.5,134C 450.353,144.762 468.686,154.762 487.5,164C 486.944,164.383 486.611,164.883 486.5,165.5C 473.254,171.881 459.921,172.048 446.5,166C 428.367,158.2 415.2,145.366 407,127.5C 403.201,119.706 405.367,114.873 413.5,113C 438.315,111.16 459.815,118.66 478,135.5C 483.416,141.667 487.249,148.667 489.5,156.5 Z"/></g>
<g><path style="opacity:1" fill="#1a3437" d="M 348.5,167.5 C 338.031,164.975 327.365,163.142 316.5,162C 325.001,165.125 333.667,167.625 342.5,169.5C 360.252,175.135 378.252,180.301 396.5,185C 391.505,190.171 385.505,193.838 378.5,196C 354.767,202.361 332.434,199.028 311.5,186C 298.713,178.213 288.213,168.046 280,155.5C 277.393,150.867 278.226,147.033 282.5,144C 301.404,135.268 321.071,133.268 341.5,138C 360.813,141.737 377.313,150.571 391,164.5C 393.435,168.372 395.602,172.372 397.5,176.5C 397,176.833 396.5,177.167 396,177.5C 380.364,173.206 364.531,169.873 348.5,167.5 Z"/></g>
<g><path style="opacity:1" fill="#ebedec" d="M 489.5,156.5 C 490.828,157.91 490.495,159.076 488.5,160C 489.167,160.333 489.833,160.667 490.5,161C 489.421,162.859 488.088,164.359 486.5,165.5C 486.611,164.883 486.944,164.383 487.5,164C 468.686,154.762 450.353,144.762 432.5,134C 451.406,141.279 470.073,149.445 488.5,158.5C 489.298,158.043 489.631,157.376 489.5,156.5 Z"/></g>
<g><path style="opacity:1" fill="#dbdfde" d="M 348.5,167.5 C 346.143,167.337 343.81,167.503 341.5,168C 342.056,168.383 342.389,168.883 342.5,169.5C 333.667,167.625 325.001,165.125 316.5,162C 327.365,163.142 338.031,164.975 348.5,167.5 Z"/></g>
<g><path style="opacity:1" fill="#193337" d="M 283.5,202.5 C 267.672,201.339 251.672,201.172 235.5,202C 239.114,202.936 242.78,203.436 246.5,203.5C 265.437,205.726 284.437,207.393 303.5,208.5C 297.569,217.477 289.235,222.977 278.5,225C 250.81,230.547 226.977,223.38 207,203.5C 205.543,200.634 205.21,197.634 206,194.5C 214.288,186.62 224.122,181.787 235.5,180C 255.396,176.658 274.063,179.991 291.5,190C 296.023,193.023 299.69,196.856 302.5,201.5C 296.202,202.496 289.868,202.83 283.5,202.5 Z"/></g>
<g><path style="opacity:1" fill="#c3d9dd" d="M 237.5,607.5 C 241.941,606.948 245.941,605.281 249.5,602.5C 251.259,624.359 260.592,642.025 277.5,655.5C 271.833,656.167 266.167,656.833 260.5,657.5C 250.319,657.173 240.319,657.506 230.5,658.5C 224.5,658.5 218.5,658.5 212.5,658.5C 215.641,657.679 218.975,657.179 222.5,657C 186.402,560.125 193.235,466.292 243,375.5C 257.247,349.421 275.08,326.087 296.5,305.5C 291.593,324.248 293.76,342.248 303,359.5C 311.117,373.951 322.284,385.451 336.5,394C 338.833,394.667 341.167,394.667 343.5,394C 346.3,389.942 348.134,385.442 349,380.5C 354.209,351.14 346.709,325.64 326.5,304C 321.502,300.25 316.002,297.417 310,295.5C 309.235,295.57 308.735,295.903 308.5,296.5C 307.427,295.749 307.26,294.749 308,293.5C 343.162,259.314 383.996,233.814 430.5,217C 442.927,212.56 455.594,209.06 468.5,206.5C 455.351,219.084 448.684,234.584 448.5,253C 452.691,297.282 465.858,300.116 488,261.5C 496.021,244.239 496.354,226.906 489,209.5C 487.553,207.597 485.886,205.93 484,204.5C 483.617,205.056 483.117,205.389 482.5,205.5C 483.36,203.386 485.027,202.22 487.5,202C 591.998,185.122 686.998,207.455 772.5,269C 845.724,326.906 888.89,402.406 902,495.5C 903,506.156 903.333,516.823 903,527.5C 845.25,455.193 770.75,410.36 679.5,393C 632.879,384.663 587.546,388.996 543.5,406C 515.513,417.495 493.513,435.995 477.5,461.5C 430.998,461.04 384.664,463.54 338.5,469C 316.359,471.968 294.693,476.968 273.5,484C 256.273,489.858 241.439,499.358 229,512.5C 216.045,528.652 211.378,546.985 215,567.5C 218.625,589.117 228.958,606.784 246,620.5C 246.667,619.833 246.667,619.167 246,618.5C 242.19,615.525 239.356,611.858 237.5,607.5 Z"/></g>
<g><path style="opacity:1" fill="#a9b6b6" d="M 283.5,202.5 C 270.989,202.171 258.655,202.505 246.5,203.5C 242.78,203.436 239.114,202.936 235.5,202C 251.672,201.172 267.672,201.339 283.5,202.5 Z"/></g>
<g><path style="opacity:1" fill="#193438" d="M 877.5,366.5 C 805.472,248.616 699.805,188.283 560.5,185.5C 447.641,187.198 353.141,229.198 277,311.5C 233.717,361.743 206.217,419.743 194.5,485.5C 193.111,490.269 192.444,495.269 192.5,500.5C 186.919,549.079 191.586,596.579 206.5,643C 197.814,643.832 189.147,643.665 180.5,642.5C 145.079,527.032 162.412,420.365 232.5,322.5C 231.833,322.167 231.167,321.833 230.5,321.5C 211.772,325.893 192.772,327.559 173.5,326.5C 172.25,332.483 168.917,336.983 163.5,340C 153.606,344.282 143.273,345.616 132.5,344C 123.723,341.89 118.39,336.557 116.5,328C 116.723,322.555 119.057,318.221 123.5,315C 139.653,304.755 155.486,305.255 171,316.5C 172.559,318.217 173.392,320.217 173.5,322.5C 199.912,320.814 224.912,313.98 248.5,302C 336.914,209.787 445.248,166.62 573.5,172.5C 580.361,157.249 587.028,141.916 593.5,126.5C 593.154,125.304 592.654,125.304 592,126.5C 583.912,141.008 576.079,155.675 568.5,170.5C 563.343,158.61 563.177,146.61 568,134.5C 574.753,118.246 586.253,106.913 602.5,100.5C 607.042,102.22 609.542,105.553 610,110.5C 612.899,134.153 605.399,153.653 587.5,169C 584.618,170.608 581.618,171.941 578.5,173C 661.84,181.306 735.173,212.306 798.5,266C 825.568,290.363 848.735,317.863 868,348.5C 871.447,354.396 874.614,360.396 877.5,366.5 Z"/></g>
<g><path style="opacity:1" fill="#1a3538" d="M 478.5,204.5 C 475.244,215.202 472.744,226.202 471,237.5C 469.577,244.122 468.91,250.789 469,257.5C 473.166,241.503 477.333,225.503 481.5,209.5C 481.833,208.167 482.167,206.833 482.5,205.5C 483.117,205.389 483.617,205.056 484,204.5C 485.886,205.93 487.553,207.597 489,209.5C 496.354,226.906 496.021,244.239 488,261.5C 465.858,300.116 452.691,297.282 448.5,253C 448.684,234.584 455.351,219.084 468.5,206.5C 471.441,205.18 474.441,203.847 477.5,202.5C 478.298,202.957 478.631,203.624 478.5,204.5 Z"/></g>
<g><path style="opacity:1" fill="#193437" d="M 520.5,223.5 C 536.44,230.424 552.773,236.258 569.5,241C 554.046,233.604 538.379,226.771 522.5,220.5C 522.082,219.778 521.416,219.278 520.5,219C 525.653,215.085 531.486,213.252 538,213.5C 562.337,214.822 580.67,225.822 593,246.5C 593.667,248.167 593.667,249.833 593,251.5C 590.293,253.936 587.127,255.436 583.5,256C 562.073,260.103 543.239,254.936 527,240.5C 523.191,236.354 520.691,231.521 519.5,226C 519.528,224.93 519.861,224.097 520.5,223.5 Z"/></g>
<g><path style="opacity:1" fill="#e8e9e8" d="M 478.5,204.5 C 478.241,206.989 479.241,208.656 481.5,209.5C 477.333,225.503 473.166,241.503 469,257.5C 468.91,250.789 469.577,244.122 471,237.5C 472.744,226.202 475.244,215.202 478.5,204.5 Z"/></g>
<g><path style="opacity:1" fill="#e1e5e4" d="M 522.5,220.5 C 538.379,226.771 554.046,233.604 569.5,241C 552.773,236.258 536.44,230.424 520.5,223.5C 519.326,221.632 519.993,220.632 522.5,220.5 Z"/></g>
<g><path style="opacity:1" fill="#1a3438" d="M 188.5,269.5 C 182.392,270.026 176.392,271.193 170.5,273C 178.717,273.137 186.717,272.304 194.5,270.5C 213.892,268.689 233.225,266.355 252.5,263.5C 254.483,263.157 255.817,263.824 256.5,265.5C 252.799,274.703 246.466,281.537 237.5,286C 202.761,304.532 168.427,303.865 134.5,284C 130.595,279.508 130.761,275.008 135,270.5C 162.178,242.923 194.678,233.756 232.5,243C 240.943,245.383 248.276,249.55 254.5,255.5C 232.191,259.324 210.191,263.99 188.5,269.5 Z"/></g>
<g><path style="opacity:1" fill="#7a8c8f" d="M 252.5,263.5 C 253.919,262.549 255.585,262.216 257.5,262.5C 257.737,263.791 257.404,264.791 256.5,265.5C 255.817,263.824 254.483,263.157 252.5,263.5 Z"/></g>
<g><path style="opacity:1" fill="#cbd0d0" d="M 188.5,269.5 C 190.265,270.461 192.265,270.795 194.5,270.5C 186.717,272.304 178.717,273.137 170.5,273C 176.392,271.193 182.392,270.026 188.5,269.5 Z"/></g>
<g><path style="opacity:1" fill="#193437" d="M 296.5,305.5 C 298.122,302.545 300.122,299.878 302.5,297.5C 303.362,298.766 304.029,300.099 304.5,301.5C 311.843,321.85 320.009,341.85 329,361.5C 324,340.668 317.5,320.335 309.5,300.5C 309.567,299.041 309.234,297.708 308.5,296.5C 308.735,295.903 309.235,295.57 310,295.5C 316.002,297.417 321.502,300.25 326.5,304C 346.709,325.64 354.209,351.14 349,380.5C 348.134,385.442 346.3,389.942 343.5,394C 341.167,394.667 338.833,394.667 336.5,394C 322.284,385.451 311.117,373.951 303,359.5C 293.76,342.248 291.593,324.248 296.5,305.5 Z"/></g>
<g><path style="opacity:1" fill="#e4e6e6" d="M 309.5,300.5 C 317.5,320.335 324,340.668 329,361.5C 320.009,341.85 311.843,321.85 304.5,301.5C 305.5,301.5 306.5,301.5 307.5,301.5C 308.947,309.333 309.613,309 309.5,300.5 Z"/></g>
<g><path style="opacity:1" fill="#193437" d="M 177.5,361.5 C 177.141,363.371 176.141,364.871 174.5,366C 155.912,380.584 137.912,395.917 120.5,412C 122.279,411.956 123.945,411.289 125.5,410C 137.556,400.944 149.89,392.278 162.5,384C 169.333,378.5 176.167,373 183,367.5C 183.383,368.056 183.883,368.389 184.5,368.5C 184.974,378.936 182.474,388.602 177,397.5C 156.596,426.452 128.763,439.285 93.5,436C 92.0423,433.923 91.3757,431.59 91.5,429C 98.7841,394.712 119.117,372.045 152.5,361C 160.887,358.96 169.22,359.127 177.5,361.5 Z"/></g>
<g><path style="opacity:1" fill="#ebedec" d="M 177.5,361.5 C 179.741,362.3 180.741,363.966 180.5,366.5C 182.483,366.157 183.817,366.824 184.5,368.5C 183.883,368.389 183.383,368.056 183,367.5C 176.167,373 169.333,378.5 162.5,384C 149.89,392.278 137.556,400.944 125.5,410C 123.945,411.289 122.279,411.956 120.5,412C 137.912,395.917 155.912,380.584 174.5,366C 176.141,364.871 177.141,363.371 177.5,361.5 Z"/></g>
<g><path style="opacity:1" fill="#4f5e61" d="M 877.5,366.5 C 883.207,375.248 887.874,384.581 891.5,394.5C 886.325,385.484 881.659,376.151 877.5,366.5 Z"/></g>
<g><path style="opacity:1" fill="#667072" d="M 891.5,394.5 C 893.293,396.426 894.293,398.759 894.5,401.5C 892.707,399.574 891.707,397.241 891.5,394.5 Z"/></g>
<g><path style="opacity:1" fill="#677173" d="M 894.5,401.5 C 895.931,402.78 896.598,404.447 896.5,406.5C 895.069,405.22 894.402,403.553 894.5,401.5 Z"/></g>
<g><path style="opacity:1" fill="#687475" d="M 896.5,406.5 C 897.931,407.78 898.598,409.447 898.5,411.5C 897.069,410.22 896.402,408.553 896.5,406.5 Z"/></g>
<g><path style="opacity:1" fill="#949a9b" d="M 898.5,411.5 C 912.748,445.958 920.415,481.958 921.5,519.5C 921.737,520.791 921.404,521.791 920.5,522.5C 918.547,484.404 911.214,447.404 898.5,411.5 Z"/></g>
<g><path style="opacity:1" fill="#b2b9bb" d="M 316.5,481.5 C 316.5,481.833 316.5,482.167 316.5,482.5C 312.727,483.958 308.727,484.458 304.5,484C 308.473,482.972 312.473,482.139 316.5,481.5 Z"/></g>
<g><path style="opacity:1" fill="#1a3438" d="M 900.5,629.5 C 892.16,629.666 883.827,629.5 875.5,629C 859.927,627.761 850.093,619.594 846,604.5C 843.387,625.903 833.887,643.403 817.5,657C 838.822,658.013 860.156,658.513 881.5,658.5C 905.674,659.567 930.007,660.567 954.5,661.5C 956.292,662.309 958.292,662.809 960.5,663C 951.99,663.171 943.657,663.671 935.5,664.5C 746.847,667.881 558.181,669.381 369.5,669C 355.661,668.831 341.994,668.331 328.5,667.5C 299.843,666.353 259.843,665.519 208.5,665C 215.208,664.711 221.875,664.045 228.5,663C 225.377,662.794 222.377,662.127 219.5,661C 229.441,659.771 239.441,659.104 249.5,659C 243.175,658.5 236.842,658.334 230.5,658.5C 240.319,657.506 250.319,657.173 260.5,657.5C 266.842,657.666 273.175,657.5 279.5,657C 278.956,656.283 278.289,655.783 277.5,655.5C 260.592,642.025 251.259,624.359 249.5,602.5C 245.941,605.281 241.941,606.948 237.5,607.5C 225.451,589.305 219.951,569.305 221,547.5C 224.094,532.402 232.928,522.236 247.5,517C 263.927,511.939 280.761,509.773 298,510.5C 357.493,513.597 416.326,520.93 474.5,532.5C 474.177,536.226 474.511,539.893 475.5,543.5C 476.429,542.311 476.762,540.978 476.5,539.5C 476.5,537.167 476.5,534.833 476.5,532.5C 508.513,539.036 540.513,545.703 572.5,552.5C 583.267,555.774 594.267,558.274 605.5,560C 595.514,556.394 585.514,552.894 575.5,549.5C 544.359,539.176 513.026,529.343 481.5,520C 480.892,518.769 480.559,517.436 480.5,516C 481.987,510.195 483.321,504.362 484.5,498.5C 520.27,501.177 555.937,504.844 591.5,509.5C 608.635,512.616 625.969,515.283 643.5,517.5C 648.592,519.292 653.926,520.126 659.5,520C 655.171,518.668 650.838,517.502 646.5,516.5C 634.501,513.834 622.501,511.167 610.5,508.5C 570.909,499.012 530.909,491.679 490.5,486.5C 499.844,463.828 514.844,445.828 535.5,432.5C 554.764,420.411 575.764,413.078 598.5,410.5C 605.805,409.504 613.138,408.67 620.5,408C 611.954,407.293 603.621,407.793 595.5,409.5C 573.865,411.494 553.532,417.494 534.5,427.5C 509.683,439.982 492.683,459.316 483.5,485.5C 448.395,482.453 413.228,480.453 378,479.5C 357.44,479.532 336.94,480.532 316.5,482.5C 316.5,482.167 316.5,481.833 316.5,481.5C 371.524,473.486 426.857,470.153 482.5,471.5C 499.379,442.387 523.712,422.22 555.5,411C 607.308,394.704 659.308,394.37 711.5,410C 780.032,429.492 838.199,465.325 886,517.5C 907.515,543.841 925.515,572.508 940,603.5C 941.61,611.68 939.11,618.18 932.5,623C 922.388,627.803 911.721,629.969 900.5,629.5 Z"/></g>
<g><path style="opacity:1" fill="#b6c0c2" d="M 609.5,420.5 C 604.731,421.889 599.731,422.556 594.5,422.5C 599.269,421.111 604.269,420.444 609.5,420.5 Z"/></g>
<g><path style="opacity:1" fill="#fbfbfb" d="M 609.5,420.5 C 642.844,418.091 675.177,422.591 706.5,434C 715.368,436.831 723.202,441.331 730,447.5C 733.804,455.553 734.471,463.886 732,472.5C 729.5,476.333 726.333,479.5 722.5,482C 712.831,488.503 702.831,494.503 692.5,500C 689.167,500.667 685.833,500.667 682.5,500C 625.596,488.387 568.263,479.554 510.5,473.5C 510.338,471.473 510.505,469.473 511,467.5C 517.167,457.333 525.333,449.167 535.5,443C 553.672,431.887 573.339,425.054 594.5,422.5C 599.731,422.556 604.731,421.889 609.5,420.5 Z"/></g>
<g><path style="opacity:1" fill="#e5e8e7" d="M 595.5,409.5 C 596.791,409.263 597.791,409.596 598.5,410.5C 575.764,413.078 554.764,420.411 535.5,432.5C 535.5,431.5 535.5,430.5 535.5,429.5C 536.552,429.649 537.552,429.483 538.5,429C 537.255,428.209 535.922,427.709 534.5,427.5C 553.532,417.494 573.865,411.494 595.5,409.5 Z"/></g>
<g><path style="opacity:1" fill="#919c9d" d="M 598.5,410.5 C 597.791,409.596 596.791,409.263 595.5,409.5C 603.621,407.793 611.954,407.293 620.5,408C 613.138,408.67 605.805,409.504 598.5,410.5 Z"/></g>
<g><path style="opacity:1" fill="#f2f3f3" d="M 678.5,606.5 C 678.672,607.492 678.338,608.158 677.5,608.5C 670.122,566.088 684.122,532.588 719.5,508C 752.725,488.205 787.058,486.205 822.5,502C 841.148,511.324 858.148,522.99 873.5,537C 886.72,550.384 899.386,564.217 911.5,578.5C 911.333,578.833 911.167,579.167 911,579.5C 889.863,558.016 866.696,539.182 841.5,523C 810.71,505.411 778.044,500.411 743.5,508C 697.08,524.573 675.413,557.406 678.5,606.5 Z"/></g>
<g><path style="opacity:1" fill="#b9bfbe" d="M 194.5,485.5 C 194.556,490.731 193.889,495.731 192.5,500.5C 192.444,495.269 193.111,490.269 194.5,485.5 Z"/></g>
<g><path style="opacity:1" fill="#9daaac" d="M 291.5,492.5 C 301.167,493.167 310.833,493.833 320.5,494.5C 306.496,494.667 292.496,494.5 278.5,494C 282.79,493.077 287.123,492.577 291.5,492.5 Z"/></g>
<g><path style="opacity:1" fill="#193438" d="M 320.5,494.5 C 310.833,493.833 301.167,493.167 291.5,492.5C 353.965,489.006 416.298,490.673 478.5,497.5C 476.983,504.086 475.983,510.752 475.5,517.5C 431.099,506.544 386.099,499.044 340.5,495C 333.842,494.5 327.175,494.334 320.5,494.5 Z"/></g>
<g><path style="opacity:1" fill="#dce0e0" d="M 610.5,508.5 C 622.501,511.167 634.501,513.834 646.5,516.5C 645.791,517.404 644.791,517.737 643.5,517.5C 625.969,515.283 608.635,512.616 591.5,509.5C 596.011,509.626 600.511,509.96 605,510.5C 607.295,510.453 609.129,509.787 610.5,508.5 Z"/></g>
<g><path style="opacity:1" fill="#a1aba9" d="M 646.5,516.5 C 650.838,517.502 655.171,518.668 659.5,520C 653.926,520.126 648.592,519.292 643.5,517.5C 644.791,517.737 645.791,517.404 646.5,516.5 Z"/></g>
<g><path style="opacity:1" fill="#a2acab" d="M 474.5,532.5 C 475.167,534.833 475.833,537.167 476.5,539.5C 476.762,540.978 476.429,542.311 475.5,543.5C 474.511,539.893 474.177,536.226 474.5,532.5 Z"/></g>
<g><path style="opacity:1" fill="#b9bebe" d="M 921.5,519.5 C 922.659,530.326 922.826,541.326 922,552.5C 921.667,552.833 921.333,553.167 921,553.5C 920.5,543.172 920.334,532.839 920.5,522.5C 921.404,521.791 921.737,520.791 921.5,519.5 Z"/></g>
<g><path style="opacity:1" fill="#f7f7f7" d="M 310.5,544.5 C 343.814,544.004 364.981,559.671 374,591.5C 377.082,615.619 368.915,634.786 349.5,649C 318.679,665.193 292.513,659.693 271,632.5C 254.089,599.916 260.589,573.083 290.5,552C 297.021,548.775 303.688,546.275 310.5,544.5 Z"/></g>
<g><path style="opacity:1" fill="#f8f8f8" d="M 768.5,544.5 C 801.881,543.406 823.381,558.739 833,590.5C 836.187,624.304 821.687,646.471 789.5,657C 756.264,661.302 733.764,647.802 722,616.5C 716.376,578.659 731.876,554.659 768.5,544.5 Z"/></g>
<g><path style="opacity:1" fill="#d8dddc" d="M 575.5,549.5 C 585.514,552.894 595.514,556.394 605.5,560C 594.267,558.274 583.267,555.774 572.5,552.5C 573.5,552.5 574.5,552.5 575.5,552.5C 575.5,551.5 575.5,550.5 575.5,549.5 Z"/></g>
<g><path style="opacity:1" fill="#1b3538" d="M 766.5,561.5 C 792.04,558.675 808.873,569.342 817,593.5C 819.35,617.99 808.85,633.824 785.5,641C 767.568,644.112 753.401,638.279 743,623.5C 730.401,595.038 738.235,574.371 766.5,561.5 Z"/></g>
<g><path style="opacity:1" fill="#edefee" d="M 768.5,570.5 C 788.587,568.117 801.753,576.45 808,595.5C 808.164,621.335 795.331,633.502 769.5,632C 751.284,625.08 743.784,611.913 747,592.5C 751.019,581.982 758.186,574.648 768.5,570.5 Z"/></g>
<g><path style="opacity:1" fill="#1a3438" d="M 771.5,574.5 C 786.954,573.472 797.454,580.139 803,594.5C 804.653,618.513 793.486,629.347 769.5,627C 755.228,621.293 749.061,610.793 751,595.5C 754.351,584.984 761.184,577.984 771.5,574.5 Z"/></g>
<g><path style="opacity:1" fill="#f7f8f8" d="M 893.5,597.5 C 902.559,597.154 911.559,597.654 920.5,599C 923.249,600.123 925.749,601.623 928,603.5C 928.667,605.5 928.667,607.5 928,609.5C 924.951,611.964 921.451,613.464 917.5,614C 908.353,615.045 899.353,614.379 890.5,612C 885.078,610.93 882.911,607.764 884,602.5C 886.907,600.132 890.074,598.465 893.5,597.5 Z"/></g>
<g><path style="opacity:1" fill="#c2d8dc" d="M 900.5,629.5 C 898.735,630.461 896.735,630.795 894.5,630.5C 891.093,640.247 886.76,649.581 881.5,658.5C 860.156,658.513 838.822,658.013 817.5,657C 833.887,643.403 843.387,625.903 846,604.5C 850.093,619.594 859.927,627.761 875.5,629C 883.827,629.5 892.16,629.666 900.5,629.5 Z"/></g>
<g><path style="opacity:1" fill="#808f93" d="M 678.5,606.5 C 679.693,608.97 680.193,611.636 680,614.5C 679.062,612.512 678.228,610.512 677.5,608.5C 678.338,608.158 678.672,607.492 678.5,606.5 Z"/></g>
<g><path style="opacity:1" fill="#1a3437" d="M 309.5,561.5 C 332.19,559.382 348.023,568.715 357,589.5C 362.084,615.848 351.917,633.014 326.5,641C 301.026,643.344 284.859,632.177 278,607.5C 276.953,584.077 287.453,568.744 309.5,561.5 Z"/></g>
<g><path style="opacity:1" fill="#ebeded" d="M 310.5,570.5 C 330.162,568.41 342.995,576.743 349,595.5C 350.93,614.48 342.763,626.647 324.5,632C 310.813,634.237 299.98,629.737 292,618.5C 282.324,596.209 288.491,580.209 310.5,570.5 Z"/></g>
<g><path style="opacity:1" fill="#193437" d="M 310.5,575.5 C 333.016,573.194 344.183,583.194 344,605.5C 339.336,622.591 328.17,629.758 310.5,627C 293.023,618.574 288.189,605.408 296,587.5C 299.848,582.18 304.681,578.18 310.5,575.5 Z"/></g>
<g><path style="opacity:1" fill="#bed3d7" d="M 394.5,655.5 C 382.988,655.828 371.654,655.495 360.5,654.5C 376.396,641.715 385.229,625.048 387,604.5C 387.333,611.167 387.667,617.833 388,624.5C 388.057,630.865 390.89,635.365 396.5,638C 404.667,638.167 412.833,638.333 421,638.5C 516.158,636.438 611.324,634.938 706.5,634C 707,633.5 707.5,633 708,632.5C 708.333,625.167 708.667,617.833 709,610.5C 711.787,629.248 720.62,644.414 735.5,656C 621.836,655.685 508.169,655.518 394.5,655.5 Z"/></g>
<g><path style="opacity:1" fill="#49676c" d="M 360.5,654.5 C 371.654,655.495 382.988,655.828 394.5,655.5C 382.674,656.66 370.674,656.826 358.5,656C 359.044,655.283 359.711,654.783 360.5,654.5 Z"/></g>
<g><path style="opacity:1" fill="#82989d" d="M 277.5,655.5 C 278.289,655.783 278.956,656.283 279.5,657C 273.175,657.5 266.842,657.666 260.5,657.5C 266.167,656.833 271.833,656.167 277.5,655.5 Z"/></g>
<g><path style="opacity:1" fill="#1d373b" d="M 212.5,658.5 C 218.5,658.5 224.5,658.5 230.5,658.5C 236.842,658.334 243.175,658.5 249.5,659C 239.441,659.104 229.441,659.771 219.5,661C 222.377,662.127 225.377,662.794 228.5,663C 221.875,664.045 215.208,664.711 208.5,665C 259.843,665.519 299.843,666.353 328.5,667.5C 240.82,667.56 153.154,666.56 65.5,664.5C 65.5,663.833 65.5,663.167 65.5,662.5C 114.494,661.048 163.494,659.715 212.5,658.5 Z"/></g>
<g><path style="opacity:1" fill="#75848b" d="M 65.5,662.5 C 65.5,663.167 65.5,663.833 65.5,664.5C 52.3632,664.301 52.3632,663.634 65.5,662.5 Z"/></g>
<g><path style="opacity:1" fill="#b1bdc1" d="M 954.5,661.5 C 959.536,661.588 964.536,662.088 969.5,663C 968.833,663.333 968.167,663.667 967.5,664C 956.839,664.5 946.172,664.667 935.5,664.5C 943.657,663.671 951.99,663.171 960.5,663C 958.292,662.809 956.292,662.309 954.5,661.5 Z"/></g>
<g><path style="opacity:1" fill="#435a5d" d="M 352.5,707.5 C 341.167,707.5 329.833,707.5 318.5,707.5C 318.5,709.167 318.5,710.833 318.5,712.5C 317.539,710.735 317.205,708.735 317.5,706.5C 329.345,706.172 341.012,706.505 352.5,707.5 Z"/></g>
<g><path style="opacity:1" fill="#536668" d="M 402.5,707.5 C 413.988,706.505 425.655,706.172 437.5,706.5C 437.795,708.735 437.461,710.735 436.5,712.5C 436.5,710.833 436.5,709.167 436.5,707.5C 425.167,707.5 413.833,707.5 402.5,707.5 Z"/></g>
<g><path style="opacity:1" fill="#607375" d="M 678.5,712.5 C 678.167,712.5 677.833,712.5 677.5,712.5C 677.5,710.833 677.5,709.167 677.5,707.5C 668.167,707.5 658.833,707.5 649.5,707.5C 649.5,721.167 649.5,734.833 649.5,748.5C 659.167,748.5 668.833,748.5 678.5,748.5C 668.681,749.494 658.681,749.827 648.5,749.5C 648.5,735.167 648.5,720.833 648.5,706.5C 658.5,706.5 668.5,706.5 678.5,706.5C 678.5,708.5 678.5,710.5 678.5,712.5 Z"/></g>
<g><path style="opacity:1" fill="#647a7b" d="M 728.5,707.5 C 725.941,707.198 723.607,707.532 721.5,708.5C 720.957,708.44 720.624,708.107 720.5,707.5C 723.309,706.2 725.976,706.2 728.5,707.5 Z"/></g>
<g><path style="opacity:1" fill="#66797b" d="M 755.5,707.5 C 758.024,706.2 760.691,706.2 763.5,707.5C 763.376,708.107 763.043,708.44 762.5,708.5C 760.393,707.532 758.059,707.198 755.5,707.5 Z"/></g>
<g><path style="opacity:1" fill="#6e7f81" d="M 827.5,707.5 C 837.319,706.506 847.319,706.173 857.5,706.5C 857.795,708.735 857.461,710.735 856.5,712.5C 856.5,710.833 856.5,709.167 856.5,707.5C 846.833,707.5 837.167,707.5 827.5,707.5 Z"/></g>
<g><path style="opacity:1" fill="#193438" d="M 369.5,706.5 C 383.689,703.679 393.856,708.679 400,721.5C 400.673,744.146 389.84,752.979 367.5,748C 356.48,740.944 352.98,731.111 357,718.5C 359.744,712.921 363.911,708.921 369.5,706.5 Z"/></g>
<g><path style="opacity:1" fill="#163237" d="M 352.5,707.5 C 352.5,709.167 352.5,710.833 352.5,712.5C 348.167,712.5 343.833,712.5 339.5,712.5C 338.505,724.322 338.172,736.322 338.5,748.5C 336.5,748.5 334.5,748.5 332.5,748.5C 332.828,736.322 332.495,724.322 331.5,712.5C 327.167,712.5 322.833,712.5 318.5,712.5C 318.5,710.833 318.5,709.167 318.5,707.5C 329.833,707.5 341.167,707.5 352.5,707.5 Z"/></g>
<g><path style="opacity:1" fill="#173135" d="M 402.5,707.5 C 413.833,707.5 425.167,707.5 436.5,707.5C 436.5,709.167 436.5,710.833 436.5,712.5C 436.167,712.5 435.833,712.5 435.5,712.5C 431.5,712.5 427.5,712.5 423.5,712.5C 423.5,724.5 423.5,736.5 423.5,748.5C 421.5,748.5 419.5,748.5 417.5,748.5C 417.828,736.322 417.495,724.322 416.5,712.5C 411.833,712.5 407.167,712.5 402.5,712.5C 402.5,710.833 402.5,709.167 402.5,707.5 Z"/></g>
<g><path style="opacity:1" fill="#1c363c" d="M 529.5,706.5 C 536.841,706.334 544.174,706.5 551.5,707C 567.693,712.915 572.193,723.748 565,739.5C 561.094,744.702 555.927,747.702 549.5,748.5C 542.833,748.5 536.167,748.5 529.5,748.5C 529.5,734.5 529.5,720.5 529.5,706.5 Z"/></g>
<g><path style="opacity:1" fill="#193539" d="M 604.5,712.5 C 597.167,712.5 589.833,712.5 582.5,712.5C 582.5,716.833 582.5,721.167 582.5,725.5C 589.167,725.5 595.833,725.5 602.5,725.5C 602.5,727.167 602.5,728.833 602.5,730.5C 595.833,730.5 589.167,730.5 582.5,730.5C 582.5,734.833 582.5,739.167 582.5,743.5C 589.833,743.5 597.167,743.5 604.5,743.5C 604.5,745.167 604.5,746.833 604.5,748.5C 594.833,748.5 585.167,748.5 575.5,748.5C 575.5,734.5 575.5,720.5 575.5,706.5C 585.167,706.5 594.833,706.5 604.5,706.5C 604.5,708.5 604.5,710.5 604.5,712.5 Z"/></g>
<g><path style="opacity:1" fill="#1c373c" d="M 685.5,706.5 C 693.174,706.334 700.841,706.5 708.5,707C 718.875,710.247 721.708,716.747 717,726.5C 714.933,729.07 712.433,731.07 709.5,732.5C 712.709,737.752 716.042,742.918 719.5,748C 716.833,748.667 714.167,748.667 711.5,748C 708.625,743.083 705.625,738.249 702.5,733.5C 699.232,732.513 695.898,732.18 692.5,732.5C 692.5,737.833 692.5,743.167 692.5,748.5C 690.167,748.5 687.833,748.5 685.5,748.5C 685.5,734.5 685.5,720.5 685.5,706.5 Z"/></g>
<g><path style="opacity:1" fill="#173338" d="M 827.5,707.5 C 837.167,707.5 846.833,707.5 856.5,707.5C 856.5,709.167 856.5,710.833 856.5,712.5C 849.167,712.5 841.833,712.5 834.5,712.5C 834.5,716.833 834.5,721.167 834.5,725.5C 841.167,725.5 847.833,725.5 854.5,725.5C 854.5,727.167 854.5,728.833 854.5,730.5C 847.833,730.5 841.167,730.5 834.5,730.5C 834.5,734.5 834.5,738.5 834.5,742.5C 841.648,743.492 848.981,743.825 856.5,743.5C 856.5,745.167 856.5,746.833 856.5,748.5C 846.833,748.5 837.167,748.5 827.5,748.5C 827.5,734.833 827.5,721.167 827.5,707.5 Z"/></g>
<g><path style="opacity:1" fill="#7d8b8e" d="M 312.5,735.5 C 312.5,726.167 312.5,716.833 312.5,707.5C 310.5,707.5 308.5,707.5 306.5,707.5C 306.827,716.682 306.493,725.682 305.5,734.5C 305.5,725.167 305.5,715.833 305.5,706.5C 308.167,706.5 310.833,706.5 313.5,706.5C 313.827,716.348 313.494,726.014 312.5,735.5 Z"/></g>
<g><path style="opacity:1" fill="#153136" d="M 677.5,712.5 C 670.167,712.5 662.833,712.5 655.5,712.5C 655.5,716.833 655.5,721.167 655.5,725.5C 662.167,725.5 668.833,725.5 675.5,725.5C 675.5,727.167 675.5,728.833 675.5,730.5C 669.167,730.5 662.833,730.5 656.5,730.5C 655.515,734.634 655.182,738.968 655.5,743.5C 663.167,743.5 670.833,743.5 678.5,743.5C 678.5,745.167 678.5,746.833 678.5,748.5C 668.833,748.5 659.167,748.5 649.5,748.5C 649.5,734.833 649.5,721.167 649.5,707.5C 658.833,707.5 668.167,707.5 677.5,707.5C 677.5,709.167 677.5,710.833 677.5,712.5 Z"/></g>
<g><path style="opacity:1" fill="#153236" d="M 767.5,707.5 C 769.5,707.833 771.5,708.167 773.5,708.5C 773.5,721.833 773.5,735.167 773.5,748.5C 771.5,748.5 769.5,748.5 767.5,748.5C 767.5,734.833 767.5,721.167 767.5,707.5 Z"/></g>
<g><path style="opacity:1" fill="#f8f9f8" d="M 372.5,712.5 C 388.839,711.331 395.339,718.665 392,734.5C 387.936,742.61 381.436,745.443 372.5,743C 363.518,738.527 360.351,731.36 363,721.5C 365.406,717.592 368.572,714.592 372.5,712.5 Z"/></g>
<g><path style="opacity:1" fill="#a3b0b1" d="M 604.5,712.5 C 597.687,713.491 590.687,713.825 583.5,713.5C 583.5,717.167 583.5,720.833 583.5,724.5C 590.022,724.177 596.355,724.51 602.5,725.5C 595.833,725.5 589.167,725.5 582.5,725.5C 582.5,721.167 582.5,716.833 582.5,712.5C 589.833,712.5 597.167,712.5 604.5,712.5 Z"/></g>
<g><path style="opacity:1" fill="#9caaaa" d="M 677.5,712.5 C 677.833,712.5 678.167,712.5 678.5,712.5C 671.352,713.492 664.019,713.825 656.5,713.5C 656.5,717.167 656.5,720.833 656.5,724.5C 663.022,724.177 669.355,724.51 675.5,725.5C 668.833,725.5 662.167,725.5 655.5,725.5C 655.5,721.167 655.5,716.833 655.5,712.5C 662.833,712.5 670.167,712.5 677.5,712.5 Z"/></g>
<g><path style="opacity:1" fill="#96a5a6" d="M 856.5,712.5 C 849.687,713.491 842.687,713.825 835.5,713.5C 835.5,717.167 835.5,720.833 835.5,724.5C 842.022,724.177 848.355,724.51 854.5,725.5C 847.833,725.5 841.167,725.5 834.5,725.5C 834.5,721.167 834.5,716.833 834.5,712.5C 841.833,712.5 849.167,712.5 856.5,712.5 Z"/></g>
<g><path style="opacity:1" fill="#fafafa" d="M 549.5,713.5 C 559.817,716.799 563.317,723.799 560,734.5C 558.5,737.333 556.333,739.5 553.5,741C 547.928,742.351 542.262,742.851 536.5,742.5C 536.5,732.833 536.5,723.167 536.5,713.5C 540.833,713.5 545.167,713.5 549.5,713.5 Z"/></g>
<g><path style="opacity:1" fill="#f4f5f5" d="M 692.5,712.5 C 697.511,712.334 702.511,712.501 707.5,713C 711.212,715.558 712.378,719.058 711,723.5C 710.097,724.701 708.931,725.535 707.5,726C 702.511,726.499 697.511,726.666 692.5,726.5C 692.5,721.833 692.5,717.167 692.5,712.5 Z"/></g>
<g><path style="opacity:1" fill="#2c484c" d="M 767.5,707.5 C 769.607,706.532 771.941,706.198 774.5,706.5C 774.5,720.833 774.5,735.167 774.5,749.5C 771.941,749.802 769.607,749.468 767.5,748.5C 769.5,748.5 771.5,748.5 773.5,748.5C 773.5,735.167 773.5,721.833 773.5,708.5C 771.5,708.167 769.5,707.833 767.5,707.5 Z"/></g>
<g><path style="opacity:1" fill="#1b363a" d="M 796.5,706.5 C 801.511,706.334 806.511,706.501 811.5,707C 815.016,708.256 818.016,710.256 820.5,713C 819.183,714.659 817.517,715.826 815.5,716.5C 805.253,709.803 796.753,711.47 790,721.5C 787.051,738.539 793.884,745.373 810.5,742C 812.344,740.818 814.177,739.651 816,738.5C 817.775,739.27 819.275,740.437 820.5,742C 813.856,748.664 805.856,750.998 796.5,749C 781.619,740.977 778.119,729.477 786,714.5C 788.94,710.963 792.44,708.297 796.5,706.5 Z"/></g>
<g><path style="opacity:1" fill="#1b373a" d="M 618.5,706.5 C 622.846,706.334 627.179,706.501 631.5,707C 634.692,708.094 637.358,709.927 639.5,712.5C 638.472,714.361 636.972,715.695 635,716.5C 630.909,712.695 626.076,711.528 620.5,713C 617.833,716 617.833,719 620.5,722C 624.284,723.947 628.284,725.28 632.5,726C 641.047,730.363 642.88,736.863 638,745.5C 632.002,749.212 625.502,750.379 618.5,749C 614.745,747.412 611.745,744.912 609.5,741.5C 611.001,740.248 612.668,739.248 614.5,738.5C 620.827,744.61 627.327,744.944 634,739.5C 634.92,736.692 634.087,734.525 631.5,733C 626.012,731.393 620.678,729.393 615.5,727C 611.034,723.901 609.534,719.735 611,714.5C 613.028,711.308 615.528,708.641 618.5,706.5 Z"/></g>
<g><path style="opacity:1" fill="#193639" d="M 272.5,747.5 C 270.393,748.468 268.059,748.802 265.5,748.5C 264.099,745.296 263.099,741.963 262.5,738.5C 255.492,738.334 248.492,738.5 241.5,739C 240.025,742.115 238.692,745.282 237.5,748.5C 234.941,748.802 232.607,748.468 230.5,747.5C 236.154,734.188 241.821,720.855 247.5,707.5C 250.372,706.217 253.205,706.217 256,707.5C 261.789,720.74 267.289,734.074 272.5,747.5 Z"/></g>
<g><path style="opacity:1" fill="#eceeed" d="M 250.5,715.5 C 251.376,715.369 252.043,715.702 252.5,716.5C 255.027,721.415 257.36,726.415 259.5,731.5C 254.544,732.494 249.544,732.827 244.5,732.5C 246.214,726.737 248.214,721.07 250.5,715.5 Z"/></g>
<g><path style="opacity:1" fill="#1b3539" d="M 728.5,707.5 C 732.619,718.405 737.286,729.072 742.5,739.5C 746.844,728.816 751.177,718.15 755.5,707.5C 758.059,707.198 760.393,707.532 762.5,708.5C 756.739,721.693 751.239,735.027 746,748.5C 743.619,749.435 741.119,749.768 738.5,749.5C 733.032,735.764 727.365,722.098 721.5,708.5C 723.607,707.532 725.941,707.198 728.5,707.5 Z"/></g>
<g><path style="opacity:1" fill="#1b363b" d="M 522.5,746.5 C 521.082,748.308 519.082,748.975 516.5,748.5C 514.942,745.708 513.609,742.708 512.5,739.5C 505.5,738.167 498.5,738.167 491.5,739.5C 490.065,742.643 488.732,745.81 487.5,749C 485.19,749.497 482.857,749.663 480.5,749.5C 486.008,735.148 492.008,720.982 498.5,707C 501.099,706.231 503.599,706.398 506,707.5C 511.512,720.521 517.012,733.521 522.5,746.5 Z"/></g>
<g><path style="opacity:1" fill="#f0f1f0" d="M 501.5,715.5 C 504.648,720.462 507.315,725.796 509.5,731.5C 504.5,732.833 499.5,732.833 494.5,731.5C 496.848,726.141 499.181,720.807 501.5,715.5 Z"/></g>
<g><path style="opacity:1" fill="#1b373c" d="M 444.5,707.5 C 451.167,707.5 457.833,707.5 464.5,707.5C 476.332,709.872 479.498,716.539 474,727.5C 471.488,729.264 468.988,730.931 466.5,732.5C 469.859,737.518 473.193,742.518 476.5,747.5C 474.393,748.468 472.059,748.802 469.5,748.5C 465.942,743.738 462.609,738.738 459.5,733.5C 456.572,732.516 453.572,732.183 450.5,732.5C 450.167,732.5 449.833,732.5 449.5,732.5C 448.513,737.305 448.179,742.305 448.5,747.5C 447.167,747.5 445.833,747.5 444.5,747.5C 444.5,734.167 444.5,720.833 444.5,707.5 Z"/></g>
<g><path style="opacity:1" fill="#718789" d="M 464.5,713.5 C 459.833,713.5 455.167,713.5 450.5,713.5C 450.5,717.833 450.5,722.167 450.5,726.5C 449.514,722.03 449.181,717.363 449.5,712.5C 454.695,712.179 459.695,712.513 464.5,713.5 Z"/></g>
<g><path style="opacity:1" fill="#f7f8f8" d="M 464.5,713.5 C 469.899,715.992 470.899,719.826 467.5,725C 461.956,726.404 456.29,726.904 450.5,726.5C 450.5,722.167 450.5,717.833 450.5,713.5C 455.167,713.5 459.833,713.5 464.5,713.5 Z"/></g>
<g><path style="opacity:1" fill="#7f8f92" d="M 549.5,713.5 C 545.167,713.5 540.833,713.5 536.5,713.5C 536.5,723.167 536.5,732.833 536.5,742.5C 535.506,732.681 535.173,722.681 535.5,712.5C 540.363,712.181 545.03,712.514 549.5,713.5 Z"/></g>
<g><path style="opacity:1" fill="#687b7c" d="M 285.5,735.5 C 284.506,726.348 284.173,717.015 284.5,707.5C 282.5,707.5 280.5,707.5 278.5,707.5C 278.5,717.5 278.5,727.5 278.5,737.5C 277.506,727.347 277.172,717.014 277.5,706.5C 280.167,706.5 282.833,706.5 285.5,706.5C 285.5,716.167 285.5,725.833 285.5,735.5 Z"/></g>
<g><path style="opacity:1" fill="#adb8ba" d="M 602.5,730.5 C 596.355,731.49 590.022,731.823 583.5,731.5C 583.5,735.167 583.5,738.833 583.5,742.5C 590.833,742.5 598.167,742.5 605.5,742.5C 605.795,744.735 605.461,746.735 604.5,748.5C 604.5,746.833 604.5,745.167 604.5,743.5C 597.167,743.5 589.833,743.5 582.5,743.5C 582.5,739.167 582.5,734.833 582.5,730.5C 589.167,730.5 595.833,730.5 602.5,730.5 Z"/></g>
<g><path style="opacity:1" fill="#c9d1d1" d="M 854.5,730.5 C 848.355,731.49 842.022,731.823 835.5,731.5C 835.5,735.167 835.5,738.833 835.5,742.5C 835.167,742.5 834.833,742.5 834.5,742.5C 834.5,738.5 834.5,734.5 834.5,730.5C 841.167,730.5 847.833,730.5 854.5,730.5 Z"/></g>
<g><path style="opacity:1" fill="#163136" d="M 285.5,735.5 C 288.275,743.376 293.608,745.543 301.5,742C 304.024,740.117 305.358,737.617 305.5,734.5C 306.493,725.682 306.827,716.682 306.5,707.5C 308.5,707.5 310.5,707.5 312.5,707.5C 312.5,716.833 312.5,726.167 312.5,735.5C 309.252,747.967 301.252,752.467 288.5,749C 283.184,746.853 279.851,743.02 278.5,737.5C 278.5,727.5 278.5,717.5 278.5,707.5C 280.5,707.5 282.5,707.5 284.5,707.5C 284.173,717.015 284.506,726.348 285.5,735.5 Z"/></g>
<g><path style="opacity:1" fill="#859394" d="M 464.5,707.5 C 457.833,707.5 451.167,707.5 444.5,707.5C 443.504,720.99 443.171,734.656 443.5,748.5C 445.5,748.5 447.5,748.5 449.5,748.5C 449.5,743.167 449.5,737.833 449.5,732.5C 449.833,732.5 450.167,732.5 450.5,732.5C 450.5,738.167 450.5,743.833 450.5,749.5C 447.833,749.5 445.167,749.5 442.5,749.5C 442.5,735.167 442.5,720.833 442.5,706.5C 450.019,706.175 457.352,706.508 464.5,707.5 Z"/></g>
<g><path style="opacity:1" fill="#839094" d="M 331.5,712.5 C 332.495,724.322 332.828,736.322 332.5,748.5C 334.5,748.5 336.5,748.5 338.5,748.5C 338.172,736.322 338.505,724.322 339.5,712.5C 339.5,724.833 339.5,737.167 339.5,749.5C 336.833,749.5 334.167,749.5 331.5,749.5C 331.5,737.167 331.5,724.833 331.5,712.5 Z"/></g>
<g><path style="opacity:1" fill="#062026" d="M 444.5,707.5 C 444.5,720.833 444.5,734.167 444.5,747.5C 445.833,747.5 447.167,747.5 448.5,747.5C 448.179,742.305 448.513,737.305 449.5,732.5C 449.5,737.833 449.5,743.167 449.5,748.5C 447.5,748.5 445.5,748.5 443.5,748.5C 443.171,734.656 443.504,720.99 444.5,707.5 Z"/></g>
<g><path style="opacity:1" fill="#849293" d="M 529.5,706.5 C 529.5,720.5 529.5,734.5 529.5,748.5C 536.167,748.5 542.833,748.5 549.5,748.5C 542.687,749.491 535.687,749.825 528.5,749.5C 528.171,734.99 528.504,720.657 529.5,706.5 Z"/></g>
<g><path style="opacity:1" fill="#475d60" d="M 416.5,712.5 C 417.495,724.322 417.828,736.322 417.5,748.5C 419.5,748.5 421.5,748.5 423.5,748.5C 423.5,748.833 423.5,749.167 423.5,749.5C 421.167,749.5 418.833,749.5 416.5,749.5C 416.5,737.167 416.5,724.833 416.5,712.5 Z"/></g>
<g><path style="opacity:1" fill="#99a5a6" d="M 656.5,730.5 C 656.5,734.5 656.5,738.5 656.5,742.5C 664.167,742.5 671.833,742.5 679.5,742.5C 679.795,744.735 679.461,746.735 678.5,748.5C 678.5,746.833 678.5,745.167 678.5,743.5C 670.833,743.5 663.167,743.5 655.5,743.5C 655.182,738.968 655.515,734.634 656.5,730.5 Z"/></g>
<g><path style="opacity:1" fill="#c4cccb" d="M 435.5,712.5 C 432.038,713.482 428.371,713.815 424.5,713.5C 424.828,725.678 424.495,737.678 423.5,749.5C 423.5,749.167 423.5,748.833 423.5,748.5C 423.5,736.5 423.5,724.5 423.5,712.5C 427.5,712.5 431.5,712.5 435.5,712.5 Z"/></g>
<g><path style="opacity:1" fill="#94a8a7" d="M 230.5,747.5 C 232.607,748.468 234.941,748.802 237.5,748.5C 234.976,749.8 232.309,749.8 229.5,748.5C 229.624,747.893 229.957,747.56 230.5,747.5 Z"/></g>
<g><path style="opacity:1" fill="#738686" d="M 272.5,747.5 C 273.043,747.56 273.376,747.893 273.5,748.5C 270.691,749.8 268.024,749.8 265.5,748.5C 268.059,748.802 270.393,748.468 272.5,747.5 Z"/></g>
<g><path style="opacity:1" fill="#687d7e" d="M 476.5,747.5 C 477.043,747.56 477.376,747.893 477.5,748.5C 474.691,749.8 472.024,749.8 469.5,748.5C 472.059,748.802 474.393,748.468 476.5,747.5 Z"/></g>
<g><path style="opacity:1" fill="#76868a" d="M 522.5,746.5 C 523.404,747.209 523.737,748.209 523.5,749.5C 520.941,749.802 518.607,749.468 516.5,748.5C 519.082,748.975 521.082,748.308 522.5,746.5 Z"/></g>
<g><path style="opacity:1" fill="#849697" d="M 834.5,742.5 C 834.833,742.5 835.167,742.5 835.5,742.5C 842.833,742.5 850.167,742.5 857.5,742.5C 857.5,744.833 857.5,747.167 857.5,749.5C 847.319,749.827 837.319,749.494 827.5,748.5C 837.167,748.5 846.833,748.5 856.5,748.5C 856.5,746.833 856.5,745.167 856.5,743.5C 848.981,743.825 841.648,743.492 834.5,742.5 Z"/></g>
<g><path style="opacity:1" fill="#193438" d="M 288.5,786.5 C 297.324,785.343 306.324,785.176 315.5,786C 388.505,849.007 473.505,878.673 570.5,875C 654.379,869.868 728.046,840.201 791.5,786C 798.5,785.333 805.5,785.333 812.5,786C 717.455,872.227 606.122,905.894 478.5,887C 404.978,872.08 341.645,838.58 288.5,786.5 Z"/></g>
</svg>
