<?xml version="1.0" standalone="no"?>
<!DOCTYPE svg PUBLIC "-//W3C//DTD SVG 20010904//EN"
 "http://www.w3.org/TR/2001/REC-SVG-20010904/DTD/svg10.dtd">
<svg version="1.0" xmlns="http://www.w3.org/2000/svg"
 width="2796.000000pt" height="1064.000000pt" viewBox="0 0 2796.000000 1064.000000"
 preserveAspectRatio="xMidYMid meet">

<defs>
    <linearGradient id="grad1" x1="0%" y1="100%" x2="0%" y2="0%">
        <stop offset="0%" style="stop-color:#1a3539;stop-opacity:1" />
        <stop offset="100%" style="stop-color:#00756c;stop-opacity:1" />
    </linearGradient>
</defs>

<g transform="translate(0.000000,1064.000000) scale(0.100000,-0.100000)"
fill="url(#grad1)" stroke="none">
<path d="M12190 10123 c-623 -35 -996 -72 -1490 -147 -91 -14 -228 -34 -305
-46 -305 -45 -468 -73 -1060 -181 -60 -11 -139 -26 -175 -34 -36 -8 -166 -35
-290 -60 -294 -60 -1132 -242 -1380 -300 -107 -25 -305 -70 -440 -101 -135
-30 -506 -115 -825 -189 -890 -205 -1184 -264 -1755 -349 -190 -28 -461 -55
-705 -71 -132 -8 -271 -17 -310 -20 -38 -3 -199 -5 -358 -6 -173 -1 -287 -5
-287 -10 0 -23 74 -120 141 -185 167 -162 416 -313 679 -412 188 -71 220 -76
483 -69 128 3 306 13 397 22 219 21 693 71 855 90 610 73 1089 119 1405 136
221 12 689 6 905 -11 507 -41 1163 -187 1817 -404 223 -74 516 -181 603 -221
33 -15 97 -45 143 -66 45 -21 82 -35 82 -33 0 3 10 -2 22 -10 43 -30 40 -16
-3 17 -191 146 -908 511 -1459 745 -226 95 -662 244 -873 298 -82 21 -107 31
-105 42 4 22 272 168 490 268 511 233 895 382 1268 489 675 194 1191 311 1670
379 265 38 350 47 681 75 1263 107 2486 32 3654 -225 679 -149 1016 -240 1557
-421 174 -58 323 -103 330 -100 18 6 -179 97 -437 202 -71 29 -182 74 -245
100 -63 26 -137 55 -165 65 -27 10 -126 47 -220 83 -297 113 -769 256 -1160
352 -478 117 -945 200 -1425 254 -408 46 -741 61 -1270 59 -212 -1 -410 -3
-440 -5z"/>
<path d="M19745 8250 c-380 -16 -834 -62 -1460 -149 -228 -32 -902 -130 -1005
-146 -52 -8 -230 -33 -395 -54 -724 -96 -1169 -143 -1880 -196 -110 -9 -258
-20 -330 -25 -71 -6 -236 -15 -365 -20 -1008 -42 -1437 -41 -2127 4 -35 3 -63
1 -63 -2 0 -26 622 -105 1120 -142 452 -33 1592 -49 2215 -30 176 5 480 14
675 20 346 10 836 35 1290 65 245 17 495 34 945 65 671 46 1366 62 1785 41
1069 -54 1948 -284 2900 -761 216 -108 324 -171 648 -375 239 -151 549 -363
767 -525 134 -100 508 -397 550 -437 11 -10 74 -63 140 -118 204 -167 226
-187 341 -297 61 -60 115 -108 118 -108 11 0 -13 39 -82 134 -402 555 -719
923 -1173 1361 -541 523 -1298 1024 -1916 1269 -353 141 -714 249 -1033 311
-539 104 -1049 140 -1665 115z"/>
<path d="M6395 7139 c-360 -32 -749 -162 -1029 -343 -571 -372 -944 -967
-1028 -1641 -18 -144 -15 -555 5 -680 17 -113 66 -345 75 -360 14 -22 20 54
11 129 -11 80 -7 188 12 361 60 545 326 1072 720 1426 262 235 477 364 770
462 313 104 641 140 936 102 439 -58 758 -184 1080 -427 391 -295 680 -716
803 -1167 58 -214 81 -385 81 -591 0 -102 -4 -209 -9 -239 -16 -91 -2 -102 25
-19 65 202 104 609 84 871 -30 393 -147 757 -338 1054 -124 192 -301 387 -493
543 -150 122 -217 167 -375 254 -405 220 -843 307 -1330 265z"/>
<path d="M20590 7140 c-343 -24 -715 -141 -995 -313 -203 -125 -495 -391 -639
-584 -193 -256 -342 -583 -400 -873 -46 -233 -51 -290 -50 -550 2 -248 4 -276
43 -505 13 -74 38 -172 50 -193 5 -9 8 80 8 214 -1 259 9 349 58 538 78 302
193 555 363 801 224 323 550 594 892 742 210 91 436 153 635 173 449 48 924
-44 1290 -249 512 -286 848 -693 1039 -1262 65 -193 92 -319 111 -521 14 -142
13 -212 -10 -468 l-5 -55 26 75 c14 41 39 147 56 235 28 148 31 181 35 436 4
179 1 313 -6 380 -42 370 -213 765 -480 1114 -122 158 -301 322 -511 467 -106
74 -350 200 -480 248 -47 17 -101 38 -120 45 -19 7 -80 24 -135 39 -253 65
-491 85 -775 66z"/>
<path d="M9180 6958 c0 -85 24 -239 50 -318 53 -162 173 -355 325 -525 128
-143 402 -412 585 -577 172 -154 535 -439 635 -499 l40 -23 -35 40 c-228 264
-229 265 -318 410 -135 217 -190 403 -180 602 8 164 85 245 276 292 209 51
452 52 2112 10 600 -16 1441 -24 1485 -15 38 8 36 9 -50 21 -49 7 -160 22
-245 33 -85 11 -202 27 -260 35 -58 8 -175 24 -260 35 -85 11 -225 29 -310 40
-85 11 -229 30 -320 41 -187 24 -423 56 -520 70 -36 5 -103 14 -150 20 -47 6
-177 24 -290 40 -113 16 -443 63 -735 104 -647 92 -1402 186 -1690 211 -38 3
-87 8 -107 11 l-38 6 0 -64z"/>
<path d="M11204 5950 c-247 -38 -368 -186 -321 -391 42 -177 123 -308 313
-505 210 -216 763 -617 1106 -798 l86 -47 1274 -6 c2463 -14 3937 -9 3915 13
-4 4 -107 14 -367 34 -168 13 -453 42 -690 71 -91 10 -257 30 -370 44 -628 75
-1136 156 -1813 290 -498 99 -648 133 -1127 256 -633 163 -1070 330 -1322 506
-102 71 -127 100 -303 348 -35 50 -74 104 -87 122 -13 18 -39 39 -58 47 -45
18 -170 27 -236 16z"/>
<path d="M4432 4075 c0 -16 2 -22 5 -12 2 9 2 23 0 30 -3 6 -5 -1 -5 -18z"/>
<path d="M17030 2654 c-81 -16 -183 -50 -245 -82 -84 -44 -188 -144 -233 -223
-69 -123 -89 -291 -51 -429 62 -226 211 -338 585 -440 191 -53 229 -66 292
-102 114 -65 155 -120 155 -208 0 -67 -20 -106 -89 -170 -60 -55 -119 -80
-212 -89 -149 -14 -255 21 -340 114 -47 51 -83 131 -97 218 -3 20 -11 37 -18
37 -7 0 -46 5 -87 11 -85 11 -201 3 -227 -16 -42 -31 -21 -218 38 -336 77
-155 239 -274 450 -330 69 -19 110 -23 234 -23 179 0 259 18 402 90 115 57
203 145 257 256 46 94 59 165 54 308 -3 105 -6 121 -36 184 -23 49 -52 89
-103 138 -96 94 -211 149 -467 223 -275 78 -373 131 -413 219 -83 182 106 342
361 306 141 -20 213 -86 261 -240 l17 -55 62 -9 c60 -9 243 4 257 17 15 16 22
115 12 171 -28 158 -138 299 -291 374 -129 63 -218 84 -373 87 -71 2 -141 1
-155 -1z"/>
<path d="M6395 2639 c-355 -48 -624 -246 -781 -576 -76 -161 -108 -372 -84
-559 28 -227 109 -407 252 -562 123 -133 237 -209 401 -267 139 -49 208 -59
376 -52 125 5 161 10 250 37 163 49 281 116 400 226 316 292 404 823 202 1223
-39 77 -135 203 -204 268 -197 186 -544 298 -812 262z m365 -197 c230 -69 424
-247 522 -482 54 -127 63 -178 62 -330 -1 -194 -41 -331 -139 -485 -217 -338
-685 -464 -1045 -281 -279 141 -436 378 -465 701 -35 394 222 777 587 874 109
30 112 30 268 26 107 -2 162 -8 210 -23z"/>
<path d="M24888 2630 c-124 -27 -224 -69 -323 -135 -216 -143 -366 -356 -431
-610 -25 -97 -28 -128 -28 -260 0 -162 9 -219 55 -365 56 -175 146 -319 261
-421 134 -118 259 -187 418 -231 73 -19 107 -23 235 -22 129 1 165 5 255 28
228 59 415 183 550 366 109 147 164 350 102 375 -23 10 -255 19 -285 11 -17
-4 -43 -34 -82 -93 -116 -175 -244 -276 -384 -303 -70 -13 -192 -13 -265 1
-163 30 -328 166 -420 346 -58 114 -75 371 -33 500 96 291 352 481 621 460
219 -17 378 -136 506 -379 30 -57 46 -61 230 -60 140 1 150 6 150 73 0 108
-81 300 -167 398 -127 145 -314 262 -498 312 -114 31 -345 36 -467 9z"/>
<path d="M3614 2615 c-17 -7 -34 -21 -38 -31 -4 -10 -9 -308 -12 -663 -3 -356
-10 -677 -15 -716 -14 -102 -58 -185 -143 -270 -127 -126 -261 -174 -458 -162
-257 16 -437 158 -509 404 -19 65 -20 94 -19 740 l1 671 -23 16 c-23 16 -83
20 -126 8 l-23 -7 1 -678 c0 -535 3 -692 14 -750 43 -221 172 -391 372 -488
133 -65 222 -82 388 -77 116 4 155 10 221 31 229 75 402 257 467 492 22 78 22
94 26 767 l3 687 -23 14 c-36 23 -70 27 -104 12z"/>
<path d="M19892 2623 c-21 -3 -39 -14 -50 -31 -16 -24 -17 -96 -20 -983 l-3
-957 21 -20 c27 -25 86 -42 147 -42 44 0 200 34 213 47 3 2 7 370 10 816 l5
812 223 3 c209 2 225 1 275 -19 77 -33 114 -64 144 -122 39 -78 43 -166 10
-237 -31 -67 -86 -122 -150 -150 -26 -12 -95 -27 -156 -34 -130 -16 -148 -25
-157 -72 -16 -84 13 -171 114 -349 85 -148 372 -599 410 -641 24 -28 36 -33
94 -39 38 -4 102 -2 150 4 100 14 121 30 121 94 0 62 -16 90 -304 507 -71 103
-129 192 -129 199 0 6 6 11 13 11 27 0 186 121 247 187 105 115 143 219 143
398 1 121 -15 196 -59 289 -65 137 -223 255 -410 306 -74 20 -106 22 -474 25
-217 2 -410 1 -428 -2z"/>
<path d="M22904 2623 l-62 -4 -40 -87 c-52 -114 -337 -914 -444 -1249 -16 -51
-33 -93 -38 -93 -5 0 -25 51 -45 113 -105 318 -467 1283 -491 1306 -3 3 -83 7
-178 9 -192 4 -201 1 -199 -61 1 -30 98 -308 238 -682 147 -393 290 -777 327
-875 107 -288 155 -386 193 -396 13 -3 89 -4 169 -2 131 3 147 5 160 23 23 31
88 192 161 400 77 221 247 675 370 990 105 268 190 499 199 541 6 29 4 33 -31
49 -40 19 -163 27 -289 18z"/>
<path d="M1024 2583 c-20 -46 -165 -398 -239 -578 -76 -187 -432 -1016 -504
-1174 -34 -74 -61 -141 -61 -151 0 -32 33 -50 93 -50 48 0 59 4 71 22 15 24
110 243 166 386 l33 82 539 -2 539 -3 93 -220 c51 -121 99 -233 107 -248 13
-29 14 -29 79 -22 36 4 68 9 73 12 15 9 6 55 -27 130 -66 152 -199 470 -261
623 -35 85 -100 243 -145 350 -45 107 -109 260 -142 340 -103 248 -209 494
-224 518 -13 20 -22 22 -94 22 l-80 0 -16 -37z m171 -343 c28 -69 73 -177 99
-240 27 -63 68 -162 91 -220 83 -204 163 -396 184 -444 14 -32 18 -53 12 -59
-10 -10 -906 -5 -916 5 -3 3 17 56 43 119 50 114 81 190 165 394 241 584 238
576 255 573 9 -2 37 -55 67 -128z"/>
<path d="M4299 2612 l-276 -2 -11 -26 c-14 -30 -15 -93 -2 -114 8 -13 55 -15
300 -18 l290 -3 0 -903 0 -904 39 -16 c37 -14 44 -14 85 1 l46 17 2 906 3 905
305 5 305 5 3 71 3 71 -153 7 c-84 3 -268 5 -408 4 -140 -2 -379 -4 -531 -6z"/>
<path d="M8003 2613 l-333 -3 -6 -25 c-5 -21 2 -109 9 -117 1 -1 133 -5 292
-8 l290 -5 3 -908 2 -908 26 -9 c24 -9 68 -7 117 7 16 4 17 56 17 913 l0 908
303 4 c239 2 307 6 320 17 29 23 18 110 -17 133 -10 7 -214 7 -1023 1z"/>
<path d="M9584 2613 l-262 -3 -5 -28 c-3 -16 -2 -298 3 -628 5 -329 9 -753 10
-942 0 -203 4 -351 10 -362 13 -25 52 -32 105 -19 l45 11 0 363 c0 308 2 364
15 368 8 4 119 7 247 8 l233 1 26 -38 c15 -22 115 -172 223 -335 108 -163 214
-315 235 -338 40 -44 59 -48 122 -31 75 21 76 18 -101 282 -211 315 -286 422
-305 438 -27 22 -16 36 38 49 204 52 379 226 432 431 22 85 22 240 0 317 -47
163 -171 316 -309 383 -45 21 -110 45 -146 54 -79 18 -271 24 -616 19z m603
-181 c115 -36 212 -126 272 -251 35 -74 36 -79 36 -196 0 -118 -1 -121 -34
-183 -42 -76 -143 -175 -227 -219 -87 -46 -159 -54 -469 -51 l-270 3 -8 454
c-6 361 -5 457 5 464 7 5 150 6 323 3 270 -4 318 -7 372 -24z"/>
<path d="M11658 2563 c-15 -32 -56 -125 -92 -208 -35 -82 -99 -228 -140 -323
-42 -95 -76 -174 -76 -177 0 -4 -208 -498 -240 -570 -109 -244 -260 -611 -260
-631 0 -25 1 -25 77 -22 l78 3 61 140 c34 77 81 183 104 236 l43 96 240 6
c132 4 374 7 538 7 l299 0 34 -67 c18 -38 61 -131 95 -208 34 -77 72 -158 84
-180 26 -46 50 -53 117 -35 67 18 80 -22 -222 670 -49 113 -95 219 -103 235
-27 62 -206 488 -295 705 -51 123 -107 257 -126 297 l-33 73 -58 0 c-32 0 -67
3 -78 6 -17 4 -25 -4 -47 -53z m166 -328 c29 -71 99 -242 156 -380 129 -315
220 -527 231 -540 5 -5 9 -17 9 -27 0 -17 -24 -18 -470 -18 l-470 0 16 38 c18
40 159 377 256 612 33 79 68 163 78 185 10 22 32 76 50 120 48 121 61 146 77
143 7 -2 38 -61 67 -133z"/>
<path d="M18224 2589 l-29 -30 -6 -277 c-4 -152 -8 -576 -9 -942 -2 -624 -1
-667 16 -702 l18 -38 633 0 633 0 27 41 c23 36 26 49 25 117 -3 97 -18 177
-39 194 -13 10 -112 14 -462 18 l-446 5 0 240 0 240 390 5 c215 3 397 9 406
13 37 18 35 264 -3 312 l-19 25 -390 0 -389 0 0 219 c0 142 4 222 10 226 6 4
201 7 434 7 301 0 431 4 447 12 47 23 61 70 55 183 -3 57 -11 115 -18 130
l-13 28 -621 3 -620 2 -30 -31z"/>
<path d="M23487 2609 c-48 -28 -47 -4 -47 -998 0 -543 4 -940 9 -954 14 -37
76 -57 177 -57 85 0 168 14 192 33 9 7 12 211 12 958 0 550 -4 958 -9 972 -21
53 -32 57 -179 57 -75 0 -145 -5 -155 -11z"/>
<path d="M26324 2595 l-24 -24 2 -960 c3 -906 4 -961 21 -978 17 -17 56 -18
643 -18 l626 0 19 24 c16 20 19 40 19 150 0 109 -3 129 -20 151 l-19 25 -448
0 -448 0 0 240 0 240 347 -4 c405 -4 432 -2 453 39 21 40 21 287 1 316 -14 18
-33 19 -401 24 -328 4 -387 7 -395 20 -5 8 -10 105 -10 216 l0 201 122 6 c66
4 271 7 455 7 l333 0 12 28 c6 15 13 79 16 142 4 96 1 119 -13 147 l-18 33
-624 0 -624 0 -25 -25z"/>
<path d="M12964 2598 c-13 -19 -16 -1929 -4 -1948 15 -24 689 -21 820 4 121
22 198 48 280 93 262 145 423 342 496 609 22 81 30 331 14 431 -20 129 -94
315 -158 403 -120 162 -249 265 -431 341 -162 69 -185 72 -617 76 -320 4 -393
2 -400 -9z m791 -172 c162 -28 311 -110 428 -235 156 -166 227 -345 227 -571
0 -436 -296 -765 -729 -809 -151 -16 -548 -15 -558 2 -9 14 -15 1591 -6 1621
5 18 16 19 282 13 165 -4 308 -12 356 -21z"/>
<path d="M14987 2603 c-4 -3 -7 -444 -7 -979 0 -767 3 -975 13 -981 6 -4 278
-9 603 -11 680 -4 624 -12 624 93 0 57 -2 63 -22 69 -13 3 -254 6 -535 6
l-513 0 -2 368 c-2 202 -1 375 2 385 5 17 27 18 375 15 431 -2 522 0 547 13
13 7 18 21 18 57 0 26 -3 57 -6 69 l-6 23 -462 2 -461 3 -3 305 c-2 168 0 329
3 358 l6 52 525 0 524 0 0 80 0 80 -608 0 c-335 0 -612 -3 -615 -7z"/>
</g>
</svg>

